# xmcd CD database file generated by Grip 3.2.0
# 
# Track frame offsets:
#       150
#       33568
#       88478
#       113620
#       142558
#       182013
# 
# Disc length: 2989 seconds
# 
# Revision: 6
# Processed by: cddbd v1.5.2PL0 Copyright (c) Steve Scherf et al.
# Submitted via: Grip 3.2.0
# 
DISCID=460bab06
DTITLE=Stan Getz - Jazz Classics - Live
DYEAR=1980
DGENRE=Jazz
TTITLE0=Autumn Leaves
TTITLE1=Billie's Bounce
TTITLE2=Lady Day
TTITLE3=Heart Place
TTITLE4=Kali-au
TTITLE5=Chappaqua
EXTD=YEAR: 1996
EXTT0=
EXTT1=
EXTT2=
EXTT3=
EXTT4=
EXTT5=
PLAYORDER=
